<svg viewBox="0 0 48 48" xml:space="preserve" xmlns="http://www.w3.org/2000/svg"><path clip-rule="evenodd" d="M46 44.438H2a1 1 0 1 1 0-2h44a1 1 0 1 1 0 2zm-30-10a1 1 0 1 1 0 2H8a1 1 0 1 1 0-2h1v-13H8a1 1 0 1 1 0-2h8a1 1 0 1 1 0 2h-1v13h1zm-3-13h-2v13h2v-13zm15 13a1 1 0 1 1 0 2h-8a1 1 0 1 1 0-2h1v-13h-1a1 1 0 1 1 0-2h8a1 1 0 1 1 0 2h-1v13h1zm-3-13h-2v13h2v-13zm19 18a1 1 0 0 1-1 1H5a1 1 0 1 1 0-2h38a1 1 0 0 1 1 1zm-4-5a1 1 0 1 1 0 2h-8a1 1 0 1 1 0-2h1v-13h-1a1 1 0 1 1 0-2h8a1 1 0 1 1 0 2h-1v13h1zm-3-13h-2v13h2v-13zm-34-6L24 4l21 11.438v2H3v-2zm37.541 0L24 6.886 7.396 15.438h33.145z" fill-rule="evenodd" fill="#4b2d92" class="fill-000000"></path></svg>